<?xml version="1.0" encoding="utf-8"?>
<!-- Generator: Adobe Illustrator 25.4.1, SVG Export Plug-In . SVG Version: 6.00 Build 0)  -->
<svg version="1.1" id="Capa_1" xmlns="http://www.w3.org/2000/svg" xmlns:xlink="http://www.w3.org/1999/xlink" x="0px" y="0px"
	 viewBox="0 0 58.3 100" style="enable-background:new 0 0 58.3 100;" xml:space="preserve">
<style type="text/css">
	.st0{fill:#FFFFFF;}
</style>
<g>
	<path class="st0" d="M57.2,49.7c-0.1-2-0.9-3.9-2.3-5.4L15.3,3c-2-2.1-5.1-3-7.9-2.3c-2.9,0.7-5.1,2.9-6,5.7c-0.8,2.8-0.1,5.9,2,8
		L37.5,50L3.4,85.5c-2,2.1-2.8,5.2-2,8c0.8,2.8,3.1,5,6,5.7c2.9,0.7,5.9-0.2,7.9-2.3l39.6-41.2C56.4,54.1,57.3,51.9,57.2,49.7
		L57.2,49.7z"/>
</g>
</svg>
